<?xml version="1.0" encoding="utf-8"?>
<!-- Generator: Adobe Illustrator 16.0.0, SVG Export Plug-In . SVG Version: 6.00 Build 0)  -->
<!DOCTYPE svg PUBLIC "-//W3C//DTD SVG 1.1//EN" "http://www.w3.org/Graphics/SVG/1.1/DTD/svg11.dtd">
<svg version="1.1" id="Layer_1" xmlns="http://www.w3.org/2000/svg" xmlns:xlink="http://www.w3.org/1999/xlink" x="0px" y="0px"
	 width="3000px" height="3000px" viewBox="0 0 3000 3000" enable-background="new 0 0 3000 3000" xml:space="preserve">
<g>
	<path fill="#F72210" d="M597.482,1526.174h98.392c0-42.453-27.613-59.451-48.128-59.451
		C624.384,1466.723,599.601,1486.544,597.482,1526.174 M2057.053,1525.457h98.441c0-42.454-27.609-59.45-48.156-59.45
		C2083.987,1466.007,2059.235,1485.85,2057.053,1525.457 M2353.677,1524.795h98.387c0-42.486-27.584-59.495-48.123-59.495
		C2379.84,1466.007,2355.089,1485.132,2353.677,1524.795 M2885.273,1686.151c0.717-0.685,0.717-1.434,0.717-2.097
		c0-0.716-0.717-1.421-0.717-2.139c-0.719-0.718-1.413-0.718-2.803-0.718h-2.162v4.953h2.162
		C2883.86,1686.9,2884.555,1686.9,2885.273,1686.151 M2885.99,1689.703c0.717,0.716,1.422,0.716,1.422,0.716
		c0.674,0.718,1.412,1.413,1.412,2.097c0,0,1.434,2.173,2.813,5.691h-5.646c-2.13-3.519-2.846-5.691-3.52-6.375
		c-0.75-0.695-1.434-1.413-2.162-1.413h-0.684v7.788h-4.268v-18.42h8.503c2.847,0,4.226,0.716,4.964,1.411
		c1.434,1.436,1.434,2.141,1.434,4.269c0,1.434-0.751,2.813-1.434,3.519C2888.086,1688.28,2887.412,1688.985,2885.99,1689.703
		 M2893.061,1698.207c2.813-2.857,4.246-6.375,4.246-9.927c0-4.226-1.434-7.082-4.246-9.916c-2.803-2.813-6.354-4.236-9.916-4.236
		c-3.52,0-7.072,1.424-9.883,4.236c-2.856,2.834-4.27,6.354-4.27,9.916c0,4.235,1.413,7.069,4.27,9.927
		c2.811,2.846,6.363,4.225,9.883,4.225C2886.707,1702.432,2890.258,1701.053,2893.061,1698.207 M2900.141,1688.28
		c0,3.552-0.716,6.408-2.834,8.503c-1.434,2.836-3.53,4.941-6.364,6.354c-2.856,1.434-5.669,2.846-9.222,2.846
		c-3.518,0-6.363-0.694-8.459-2.846c-2.856-1.413-4.975-3.519-6.377-6.354c-1.41-2.846-2.834-5.646-2.834-8.503
		c0-3.563,0.673-6.364,2.834-8.493c1.402-2.836,3.521-4.951,6.377-6.364c2.811-1.423,5.646-2.856,8.459-2.856
		c3.553,0,6.365,0.749,9.222,2.856c2.834,1.413,4.931,3.528,6.364,6.364C2899.425,1682.634,2900.141,1685.467,2900.141,1688.28
		 M2859.782,1705.289h-90.6l-94.139-122.477l-30.453,22.666v24.067h26.89v75.743H2532.77v-75.743h26.184v-266.878h-39.617v-75.037
		h125.971v239.976l63.003-46.016h-39.653v-76.46h169.199v76.46h-26.219l-65.805,49.567l75.722,98.387h39.651L2859.782,1705.289z
		 M2534.17,1555.193c0,6.365,0,12.763-0.684,19.138h-179.81c-4.974,58.049,16.998,75.014,50.264,75.014
		c27.606,0,48.841-18.375,48.841-46.712h77.848c-2.095,50.948-28.302,109.008-130.935,109.008
		c-102.655,0-150.812-74.307-150.812-156.447c0-74.318,49.569-152.885,148.693-152.885
		C2492.411,1401.591,2534.17,1467.44,2534.17,1555.193 M2237.578,1555.943c0,6.364,0,12.718-0.695,19.082h-179.83
		c-4.931,58.039,17.017,75.024,50.285,75.024c27.586,0,48.851-18.419,48.851-46.723h77.871
		c-2.129,50.992-28.314,109.031-130.958,109.031c-102.654,0-150.79-74.342-150.79-156.415c0-74.352,49.569-152.939,148.661-152.939
		C2195.809,1402.309,2237.578,1468.156,2237.578,1555.943 M1960.1,1480.875h-26.207l-66.521,225.108H1778.9l-41.77-123.171
		l-37.512,123.171h-90.612l-75.035-224.392h-26.181v-76.46h156.421v75.743h-39.62l41.033,119.618l53.825-195.361h48.112
		l65.858,196.101l35.373-119.641h-39.641v-76.46H1960.1V1480.875z M1335.077,1484.416c0,10.61,8.487,17.69,38.223,27.606
		l42.471,14.151c38.936,12.773,85.658,41.782,85.658,94.867c0,62.298-46.723,92.012-104.062,92.012
		c-46.012,0-81.406-22.634-91.327-32.55v24.786h-76.453v-103.373h75.042c2.129,33.982,32.559,51.665,60.162,51.665
		c22.66,0,33.271-9.885,33.271-21.201c0-14.183-8.487-21.971-46.013-33.981l-37.518-12.741
		c-38.223-12.044-80.693-40.346-80.693-90.631c0-61.591,54.515-92.718,101.238-92.718c48.123,0,71.473,13.445,83.517,26.912
		l0.711-23.371h75.031v94.162h-79.283c-1.428-25.491-26.188-36.83-50.974-36.83
		C1344.265,1463.182,1335.077,1472.371,1335.077,1484.416 M1225.351,1480.875h-26.196l-66.521,225.108h-88.503l-41.753-123.171
		l-37.525,123.171h-90.592l-75.042-224.392h-26.191v-76.46h156.432v75.743h-39.62l41.048,119.618l53.798-195.361h48.118
		l65.844,195.361l35.384-119.618h-39.638v-75.743h130.958V1480.875z M777.986,1556.627c0,6.354,0,12.719-0.707,19.116H597.482
		c-4.957,58.039,16.985,75.024,50.264,75.024c27.591,0,48.834-18.388,48.834-46.723h77.87
		c-2.128,50.959-28.319,109.008-130.958,109.008c-102.644,0-150.767-74.309-150.767-156.426
		c0-74.318,49.546-152.905,148.644-152.905C736.226,1403.004,777.986,1468.841,777.986,1556.627 M515.37,1364.079h-39.646v341.904
		h-72.903l-177.679-233.612v156.457h39.646v76.461H99.859v-75.743h39.646v-265.467H99.859v-76.448h124.582l165.646,217.322v-140.874
		h-39.646v-76.448h164.218L515.37,1364.079z"/>
	<rect x="99.859" y="1286.406" fill-rule="evenodd" clip-rule="evenodd" fill="none" width="2800.281" height="427.188"/>
</g>
</svg>
